<svg xmlns="http://www.w3.org/2000/svg" width="512" height="512" viewBox="0 0 512 512">
  <defs>
    <radialGradient id="bg" cx="0.5" cy="0.4" r="0.75">
      <stop offset="0%" stop-color="#bfeaff"/>
      <stop offset="55%" stop-color="#4f86c8"/>
      <stop offset="100%" stop-color="#0b1a3a"/>
    </radialGradient>
    <filter id="shadow" x="-20%" y="-20%" width="140%" height="140%">
      <feGaussianBlur in="SourceAlpha" stdDeviation="6"/>
      <feOffset dy="6"/>
      <feComponentTransfer><feFuncA type="linear" slope="0.5"/></feComponentTransfer>
      <feMerge><feMergeNode/><feMergeNode in="SourceGraphic"/></feMerge>
    </filter>
  </defs>

  <rect width="512" height="512" fill="url(#bg)"/>

  <g transform="translate(256 264)" filter="url(#shadow)">
    <g fill="#ffffff" stroke="#ffffff" stroke-width="22" stroke-linecap="round" stroke-linejoin="round">
      <line x1="0" y1="-160" x2="0" y2="160"/>
      <line x1="-139" y1="-80" x2="139" y2="80"/>
      <line x1="-139" y1="80" x2="139" y2="-80"/>
    </g>
    <g fill="none" stroke="#ffffff" stroke-width="14" stroke-linecap="round">
      <g>
        <line x1="0" y1="-120" x2="-30" y2="-150"/>
        <line x1="0" y1="-120" x2="30" y2="-150"/>
        <line x1="0" y1="-70" x2="-22" y2="-92"/>
        <line x1="0" y1="-70" x2="22" y2="-92"/>
      </g>
      <g transform="rotate(60)">
        <line x1="0" y1="-120" x2="-30" y2="-150"/>
        <line x1="0" y1="-120" x2="30" y2="-150"/>
        <line x1="0" y1="-70" x2="-22" y2="-92"/>
        <line x1="0" y1="-70" x2="22" y2="-92"/>
      </g>
      <g transform="rotate(120)">
        <line x1="0" y1="-120" x2="-30" y2="-150"/>
        <line x1="0" y1="-120" x2="30" y2="-150"/>
        <line x1="0" y1="-70" x2="-22" y2="-92"/>
        <line x1="0" y1="-70" x2="22" y2="-92"/>
      </g>
      <g transform="rotate(180)">
        <line x1="0" y1="-120" x2="-30" y2="-150"/>
        <line x1="0" y1="-120" x2="30" y2="-150"/>
        <line x1="0" y1="-70" x2="-22" y2="-92"/>
        <line x1="0" y1="-70" x2="22" y2="-92"/>
      </g>
      <g transform="rotate(240)">
        <line x1="0" y1="-120" x2="-30" y2="-150"/>
        <line x1="0" y1="-120" x2="30" y2="-150"/>
        <line x1="0" y1="-70" x2="-22" y2="-92"/>
        <line x1="0" y1="-70" x2="22" y2="-92"/>
      </g>
      <g transform="rotate(300)">
        <line x1="0" y1="-120" x2="-30" y2="-150"/>
        <line x1="0" y1="-120" x2="30" y2="-150"/>
        <line x1="0" y1="-70" x2="-22" y2="-92"/>
        <line x1="0" y1="-70" x2="22" y2="-92"/>
      </g>
    </g>
    <circle r="22" fill="#bfeaff"/>
  </g>

  <g transform="translate(256 116)">
    <path d="M -42 0 L -28 -36 L -14 -10 L 0 -50 L 14 -10 L 28 -36 L 42 0 Z" fill="#fff48f" stroke="#caa050" stroke-width="3" stroke-linejoin="round"/>
    <rect x="-44" y="-2" width="88" height="10" fill="#fff48f" stroke="#caa050" stroke-width="3"/>
    <circle cx="0" cy="-22" r="6" fill="#ff5577"/>
  </g>
</svg>
